<svg width="436" height="452" viewBox="0 0 436 452" fill="none" xmlns="http://www.w3.org/2000/svg">
<path d="M0.126465 202.617C7.36264 107.438 85.3399 7.33398 205.495 0.377456C330.348 -6.84499 425.522 90.6314 436 202.606C434.008 202.723 432.036 202.946 430.064 202.957C397.28 202.978 364.495 202.904 331.71 203.063C327.437 203.085 325.558 201.936 324.392 197.373C311.261 146.167 266.946 111.607 215.818 112.384C167.529 113.118 124.153 147.794 111.807 195.958C110.424 201.372 108.514 203.191 102.95 203.138C70.8572 202.829 38.7538 202.999 6.6607 202.978C4.48262 202.946 2.30454 202.734 0.126465 202.617Z" fill="#FFFFFF"/>
<path d="M0 249.09C2.49808 249.09 4.52132 249.09 6.54455 249.09C38.8131 249.09 71.0817 249.185 103.35 248.983C108.254 248.951 110.359 250.281 111.691 255.472C124.501 305.433 168.713 340.046 218.799 339.705C268.151 339.376 311.826 304.55 324.265 255.312C325.473 250.536 327.228 248.919 332.131 248.962C364.74 249.207 397.349 249.09 429.969 249.09C431.827 249.09 433.675 249.09 435.564 249.09C429.979 339.535 353.994 445 229.782 451.669C101.131 458.583 8.8465 356.044 0 249.09Z" fill="#FFFFFF"/>
<path d="M152.29 225.87C152.332 188.853 181.885 158.4 217.818 158.336C253.927 158.272 283.718 188.981 283.625 226.167C283.532 263.152 253.937 293.648 218.046 293.722C181.958 293.786 152.239 263.131 152.29 225.87ZM218.107 191.821C199.516 191.778 184.786 206.872 184.776 225.976C184.765 245.101 199.465 260.259 218.025 260.237C236.275 260.216 251.088 245.069 251.171 226.338C251.264 207.213 236.554 191.863 218.107 191.821Z" fill="#FFFFFF"/>
</svg>
